<?xml version="1.0" standalone="no"?>
<!DOCTYPE svg PUBLIC "-//W3C//DTD SVG 20010904//EN"
 "http://www.w3.org/TR/2001/REC-SVG-20010904/DTD/svg10.dtd">
<svg version="1.0" xmlns="http://www.w3.org/2000/svg"
 width="310.000000pt" height="202.000000pt" viewBox="0 0 310.000000 202.000000"
 preserveAspectRatio="xMidYMid meet">

<g transform="translate(0.000000,202.000000) scale(0.100000,-0.100000)"
fill="#000000" stroke="none">
<path d="M0 1010 l0 -1010 1550 0 1550 0 0 1010 0 1010 -1550 0 -1550 0 0
-1010z m1285 252 c0 -55 -4 -67 -24 -83 -28 -23 -64 -25 -81 -4 -7 8 -9 15 -4
16 5 0 25 1 44 2 35 2 35 2 38 53 3 45 0 52 -18 57 -33 9 -24 29 13 25 l32 -3
0 -63z m83 -2 l26 -65 30 68 c27 60 46 84 46 57 0 -24 -64 -160 -75 -160 -6 0
-26 35 -43 78 -35 84 -38 96 -21 90 6 -2 23 -33 37 -68z m296 59 c30 -14 49
-57 41 -92 -10 -39 -40 -60 -88 -61 l-42 -1 -3 65 c-2 36 -7 69 -13 75 -5 5
-9 13 -9 17 0 12 86 10 114 -3z m104 -78 c2 -64 0 -82 -10 -79 -9 3 -14 31
-16 87 -2 64 0 82 10 79 9 -3 14 -31 16 -87z m170 77 c22 -22 13 -28 -33 -21
-52 7 -75 -7 -75 -45 0 -35 27 -62 62 -62 35 0 48 26 23 44 -17 12 -16 13 5
19 32 8 40 1 40 -34 0 -24 -7 -32 -34 -46 -45 -21 -81 -11 -107 30 -24 39 -18
73 17 105 28 24 82 30 102 10z m82 -73 c0 -69 -3 -85 -15 -85 -12 0 -15 16
-15 85 0 69 3 85 15 85 12 0 15 -16 15 -85z m168 68 c2 -9 -7 -13 -27 -13
l-31 0 0 -70 c0 -56 -3 -70 -15 -70 -12 0 -15 14 -15 70 0 68 -1 70 -25 70
-16 0 -25 6 -25 15 0 13 12 15 67 13 42 -2 68 -8 71 -15z m133 -65 c25 -54 35
-84 28 -87 -7 -2 -16 4 -21 13 -12 21 -50 21 -94 0 -19 -9 -37 -14 -40 -11 -3
3 11 37 31 76 19 40 33 76 30 81 -4 6 1 10 10 10 10 0 30 -30 56 -82z m89 12
l0 -70 45 0 c33 0 45 -4 45 -15 0 -12 -13 -15 -55 -15 l-55 0 0 85 c0 50 4 85
10 85 6 0 10 -30 10 -70z m-1395 -20 c15 -16 15 -22 5 -35 -10 -12 -10 -15 3
-15 39 0 47 -26 47 -161 0 -72 -5 -139 -10 -150 -9 -16 -22 -19 -90 -19 -64 0
-80 -3 -80 -15 0 -8 5 -15 10 -15 6 0 10 -11 10 -25 0 -25 -1 -25 -80 -25 -66
0 -82 3 -87 16 -4 10 1 22 10 29 35 25 18 35 -61 35 -47 0 -83 5 -90 12 -8 8
-12 57 -12 155 0 130 2 143 19 153 11 5 82 10 158 10 l138 1 40 34 c22 19 43
35 46 35 3 0 14 -9 24 -20z m260 -265 c26 -75 51 -138 55 -140 4 -2 22 43 40
100 24 77 31 114 26 140 -7 33 -6 35 21 35 28 0 30 -4 78 -147 l49 -148 46
145 46 145 33 3 c29 3 33 1 27 -14 -4 -10 -32 -98 -63 -196 l-57 -178 -32 0
c-32 0 -32 0 -70 113 l-38 112 -35 -112 c-36 -112 -36 -113 -67 -113 -21 0
-34 6 -39 18 -8 19 -125 365 -125 369 0 2 13 3 29 3 28 0 30 -4 76 -135z m775
105 l0 -30 -110 0 -110 0 0 -53 0 -54 80 5 80 5 0 -32 c0 -31 0 -31 -54 -31
-30 0 -66 -4 -80 -10 -23 -8 -26 -15 -26 -54 l0 -45 123 -3 122 -3 3 -27 3
-28 -150 0 -151 0 0 195 0 195 135 0 135 0 0 -30z m375 18 c49 -22 72 -110 41
-153 -12 -17 -11 -23 10 -48 36 -43 33 -104 -7 -143 -30 -29 -31 -29 -165 -32
l-134 -4 0 109 c0 59 -3 147 -7 196 l-6 87 121 0 c73 0 132 -5 147 -12z"/>
<path d="M1600 1245 c0 -52 2 -55 24 -55 33 0 56 25 56 60 0 31 -23 50 -59 50
-19 0 -21 -6 -21 -55z"/>
<path d="M2262 1245 c-16 -34 -16 -33 13 -27 28 5 30 11 12 36 -12 17 -14 16
-25 -9z"/>
<path d="M940 1207 c-19 -17 -59 -52 -88 -77 l-53 -45 28 -28 29 -27 83 95
c45 52 79 100 76 105 -11 18 -40 10 -75 -23z"/>
<path d="M607 1163 c-13 -12 -8 -268 5 -281 13 -13 391 -18 422 -6 14 5 16 28
16 150 l0 144 -29 0 c-17 0 -33 -4 -36 -10 -4 -6 7 -10 25 -10 l31 0 -3 -127
-3 -128 -207 -3 -208 -2 0 130 0 130 119 0 c69 0 122 4 126 10 7 11 -247 15
-258 3z"/>
<path d="M630 1025 l0 -115 195 0 195 0 0 115 0 115 -28 0 c-22 0 -40 -14 -87
-70 -33 -38 -67 -70 -77 -70 -9 0 -23 -12 -30 -27 -10 -21 -23 -29 -51 -34
-21 -3 -39 -3 -42 0 -2 4 0 22 4 41 5 24 15 39 34 48 15 7 27 21 27 32 0 10
17 32 38 49 l37 30 -107 1 -108 0 0 -115z"/>
<path d="M780 1062 c0 -14 49 -56 57 -49 3 4 -4 18 -17 32 -24 25 -40 32 -40
17z"/>
<path d="M748 1018 c-22 -7 -28 -16 -28 -39 0 -24 4 -29 24 -29 28 0 45 17 48
50 4 27 -7 32 -44 18z"/>
<path d="M780 846 c0 -12 12 -16 51 -16 66 0 62 24 -4 28 -37 2 -47 0 -47 -12z"/>
<path d="M793 803 c20 -2 54 -2 75 0 20 2 3 4 -38 4 -41 0 -58 -2 -37 -4z"/>
<path d="M2230 994 c0 -47 3 -55 16 -50 9 3 44 6 79 6 70 0 95 14 95 55 0 34
-27 45 -114 45 l-76 0 0 -56z"/>
<path d="M2260 882 c-34 -7 -35 -9 -38 -54 l-3 -48 94 0 c78 0 97 3 110 18 21
23 22 56 2 72 -17 14 -116 21 -165 12z"/>
</g>
</svg>
